# xmcd CD database file
#
# Track frame offsets:
#	150
#	35025
#	69032
#	110459
#	155050
#	192536
#	217965
#	252295
#	281029
#	306459
#
# Disc length: 4458 seconds
#
# Revision: 0
# Processed by: cddbd v1.5PL3 Copyright (c) Steve Scherf et al.
# Submitted via: CDex 1.51
#
DISCID=9611680a
DTITLE=Paul Williams Quintent - Non-Consensual Head Compression
DYEAR=2001
DGENRE=Jazz
TTITLE0=Queen of Mean
TTITLE1=Squat Man
TTITLE2=Non-Consensual Head Compression
TTITLE3=Tent People
TTITLE4=McPherson Street
TTITLE5=The Last Word
TTITLE6=Lindushka
TTITLE7=Gross National Happiness
TTITLE8=Mind Over Mattress
TTITLE9=Buscle Mulk
EXTD=YEAR: 2001
EXTT0=
EXTT1=
EXTT2=
EXTT3=
EXTT4=
EXTT5=
EXTT6=
EXTT7=
EXTT8=
EXTT9=
PLAYORDER=
